<?xml version="1.0" encoding="utf-8"?>
<!-- Generator: Adobe Illustrator 19.1.0, SVG Export Plug-In . SVG Version: 6.00 Build 0)  -->
<svg version="1.1" xmlns="http://www.w3.org/2000/svg" xmlns:xlink="http://www.w3.org/1999/xlink" x="0px" y="0px"
	 viewBox="0 0 910.1 276.2" style="enable-background:new 0 0 910.1 276.2;" xml:space="preserve">
<style type="text/css">
	.st0{fill:#322B29;}
	.st1{fill:#FBFCFC;}
	.st2{fill:#A9A3A1;}
</style>
<g id="Layer_2">
</g>
<g id="Layer_1">
	<g>
		<g>
			<path class="st1" d="M238.2,203.3c-1,0-1.8,0.5-2.3,1.3l0,0c-21.3,31.2-57.1,51.8-97.7,51.8c-65.4,0-118.3-53-118.3-118.3
				c0-65.4,53-118.3,118.3-118.3c40.7,0,76.4,20.6,97.7,51.8l0,0c0.5,0.8,1.3,1.3,2.3,1.3c0.6,0,1.1-0.2,1.5-0.5l10-6.8l1.7-1.2
				c0.8-0.5,1.3-1.4,1.3-2.4c0-0.6-0.2-1.1-0.5-1.6c0,0-0.7-1.1-1.1-1.7C226,23.3,184.8,0,138.1,0C61.8,0,0,61.8,0,138.1
				s61.8,138.1,138.1,138.1c46.7,0,88-23.3,112.9-58.8c0.4-0.5,1.1-1.7,1.1-1.7c0.3-0.5,0.5-1,0.5-1.6c0-1-0.5-1.9-1.3-2.4l-1.7-1.2
				l-10-6.8C239.2,203.5,238.7,203.3,238.2,203.3"/>
			<g>
				<path class="st1" d="M106.7,96.5c-2.7-0.1-5.4,0-8.1-0.2c-1.7-0.1-2.1,0.5-2.1,2.1c0.1,12.4,0,24.8,0,37.2
					c0,0.6,0.1,1.2,0.1,1.9c3.7,0,7.3,0.3,10.9-0.1c4.6-0.5,7-3.3,7.1-7.9c0.1-8.3,0.1-16.7,0-25C114.5,99.7,111.5,96.8,106.7,96.5z
					"/>
				<path class="st1" d="M138.1,40.3c-54,0-97.8,43.8-97.8,97.8c0,54,43.8,97.8,97.8,97.8c54,0,97.8-43.8,97.8-97.8
					C235.9,84.1,192.1,40.3,138.1,40.3z M196.4,190c-1.6-0.1-3.2,0-4.7,0c-3.3,0-3.8-0.5-4.2-3.7c-0.6-4.6-1.1-9.2-1.7-13.7
					c-2.2-17.3-4.5-34.6-6.7-51.9c-0.2-1.7-0.4-3.4-0.6-5.1c-0.6,2.5-0.8,4.9-1.1,7.4c-1.3,11.1-2.6,22.1-4,33.2
					c-1.2,10.4-2.4,20.7-3.6,31.1c-0.3,2.2-1,2.8-3.2,2.8c-2.3,0-4.7,0-7,0c-2.4,0-3.1-0.6-3.3-2.9c-0.8-6.8-1.6-13.7-2.4-20.5
					c-1.4-12.2-2.9-24.4-4.3-36.6c-0.6-5-1-9.9-1.6-14.9c-0.1,0-0.1,0-0.2,0c-1.2,9.3-2.4,18.7-3.6,28c-1.9,14.6-3.8,29.2-5.7,43.8
					c-0.3,2.4-0.9,3-3.3,3c-1.8,0-3.5,0-5.3,0c-0.1,0-0.2,0-0.3,0l-6.4,0l0,0c-1.8,0-3.7,0-5.5,0c-1.8,0-2.8-0.8-3.2-2.5
					c-1.4-6-2.9-12.1-4.3-18.1c-1.6-6.6-3.1-13.3-4.7-19.9c-0.1-0.5-0.9-1.3-1.4-1.3c-2.4-0.1-4.8-0.1-7.6-0.1v2.4
					c0,11.8,0,23.7,0,35.5c0,3.6-0.3,3.9-3.9,3.9c-1.7,0-3.4,0-5.1,0c-1.7,0-2.6-0.7-2.7-2.5c0-0.6-0.1-1.3-0.1-1.9
					c0-31.7,0-63.5,0-95.2c0-0.7,0-1.4,0.1-2.1c0.1-1.4,0.9-2.1,2.2-2.1c7.5,0.1,15.1-0.2,22.6,0.4c10,0.7,16.2,7.3,16.4,17.2
					c0.2,9.1,0.2,18.2-0.1,27.4c-0.2,5.9-2.6,10.9-8.1,13.9c-1.2,0.6-1.1,1.4-0.8,2.5c2.7,10.7,5.3,21.3,7.9,32
					c0.2,0.8,0.4,1.6,0.6,2.4l0,0c0.1,0.5,0.5,0.8,1,0.8c0.5,0,1-0.4,1-0.9l0,0c1.2-9.2,2.4-18.5,3.7-27.7c2-14.7,4-29.3,5.9-44
					c1-7.1,2-14.2,2.9-21.2c0.2-1.5,0.9-2.6,2.5-2.6c2.9-0.1,5.8-0.1,8.7,0c1.5,0,2.3,0.9,2.4,2.4c0.1,0.8,0.2,1.5,0.3,2.3
					c1.1,9.4,2.3,18.7,3.4,28.1c1.5,12.7,3.1,25.5,4.6,38.2c0.2,1.6,0.3,3.2,0.5,4.8c0.5-1.3,0.5-2.7,0.7-4c1.1-9,2.1-18,3.2-26.9
					c1.7-13.9,3.3-27.9,5-41.8c0.3-2.2,1.1-3,3.3-3.1c2.4-0.1,4.8-0.1,7.2,0c2.2,0.1,3.1,0.9,3.4,3.1c1.7,12.5,3.3,25.1,5,37.6
					c1.9,14.5,3.9,29.1,5.9,43.6c0.8,5.6,1.5,11.3,2.2,16.9C198.8,189.1,198.3,190,196.4,190z"/>
			</g>
		</g>
		<g>
			<g>
				<path class="st1" d="M644.5,77.2c0,40.6,0,81.2,0,121.8c0,4.5,0.8,5.2,5.2,5.2c11.9,0,37,0,37.5-0.1c2.3-0.1,3.5-1.3,3.6-3.6
					c0.1-2,0.1-4,0.1-6c0-7.7,0-7.7-7.7-7.7h-17.8v-43.1c1.1,0,12.8,0,17.8,0c3.8,0,4.8-1,4.8-4.9c0-2.5,0-5,0-7.5
					c-0.1-3.4-0.9-4.3-4.3-4.4c-5.2-0.1-17.4-0.1-18.3-0.2V89.4c0.7-0.1,14-0.1,20-0.2c3.4,0,4.3-1,4.3-4.3c0.1-2.6,0-5.1,0-7.7
					c0-4.4-0.8-5.2-5.3-5.2c-11.6,0-23.2,0-34.8,0C645.2,72,644.5,72.7,644.5,77.2 M558.1,204.1c4.6,0.1,9.3,0.1,13.9,0
					c3.5-0.1,4.7-1.4,5-4.9c0.3-3.4,0.7-6.8,1-10.1c2-19.7,4-39.4,6-59.1c0.4-4,0.7-8.1,1.1-12.1c0.5,1,0.6,1.9,0.7,2.9
					c0.4,4.9,0.8,9.9,1.3,14.8c2.1,21.1,4.3,42.2,6.4,63.3c0.4,3.7,1.6,5.1,5.3,5.1c4.4,0.1,8.8,0.1,13.2,0c3.5-0.1,4.8-1.2,5.3-4.7
					c2-14.9,14.8-113.9,16.1-123.9c0.3-2-0.2-3.6-2.5-3.6c-4.1-0.1-8.3-0.1-12.4,0c-2.5,0.1-3.8,1.6-4.1,4.1
					c-0.3,3.7-0.8,7.4-1.2,11.1c-2.1,18.4-4.3,36.8-6.4,55.3c-0.5,4-0.9,8-1.3,12c-0.5-2-0.7-4-0.9-6c-2.3-24-4.6-48-7-72
					c-0.3-3.4-1.6-4.6-4.9-4.7c-4.5-0.1-9-0.1-13.4,0c-3.6,0.1-4.7,1.3-5.1,5c-0.4,3.5-0.7,7.1-1,10.6c-1.7,17.4-3.4,34.8-5,52.2
					c-0.5,5-0.9,10-1.4,15c-0.1,0-0.3,0-0.4,0c-0.5-5.2-1-10.4-1.6-15.6c-2.4-20.8-4.8-41.6-7.2-62.4c-0.4-3.4-1.7-4.7-5.1-4.8
					c-3.8-0.1-7.6-0.1-11.4,0c-3.3,0.1-4.1,1-3.7,4.3c1.6,12.4,9.6,74.3,12,92.9c1.3,10.2,2.6,20.4,4,30.5
					C553.6,202.8,555,204,558.1,204.1 M495.3,89.2c0,1.5,0,73.4,0,108.3c0,0.9,0,1.8,0,2.7c0.2,2.9,1,3.8,4,3.9
					c3.4,0.1,6.8,0,10.2,0c6.1,0,6.3-0.3,6.3-6.3c0-35.1,0-107.5,0-108.7c1.4,0,10.2,0,13.5-0.1c1.8-0.1,3.3-0.8,3.3-2.9
					c0.1-3.7,0.2-7.5-0.1-11.2c-0.1-1-1.4-2.2-2.5-2.8c-0.8-0.5-47.2-0.3-47.9-0.3c-2.4,0.1-3.7,1.2-3.6,3.7c0,0.7,0,1.5,0,2.2
					c0.2,12.6-1.8,11.2,11.2,11.3C491.5,89.2,493.2,89.2,495.3,89.2 M322,96.4c0.1,10.6,0.1,21.2,0,31.8c0,3.7-2.2,5.9-5.9,6.6
					c-1.1,0.2-2.1,0.3-3.2,0.3c-2.2,0-4.4,0-6.8,0V89.4c3.3,0,6.6-0.3,9.7,0.1C319.8,89.9,322,92.4,322,96.4 M343.1,200
					c-0.3-1.9-0.8-3.7-1.2-5.6c-3.3-14.8-6.6-29.5-9.9-44.3c-0.2-0.9,0.2-2.4,0.8-2.9c6.1-4.4,9.4-10.4,9.6-17.7
					c0.3-11.7,0.5-23.4-0.1-35c-0.5-11.3-7.5-19-18.5-21.3c-11.7-2.4-23.6-1-35.4-1.1c-1.9,0-2.8,1.3-2.9,3.1
					c-0.1,1.1-0.1,2.2-0.1,3.2c0,39.6,0,79.2,0,118.8c0,0.9,0,1.8,0,2.7c0.1,3.2,1,4.1,4.2,4.2c3.7,0.1,7.5,0,11.2,0
					c4.2,0,5.1-0.9,5.1-5.1c0-11.7,0-23.4,0-35v-11.8c1.4,0,2.5,0.1,3.5,0c2.2-0.3,3,0.7,3.3,2.7c1.4,7.6,3,15.1,4.5,22.6
					c1.5,7.5,3,15.1,4.5,22.6c0.4,2.1,1.4,3.8,3.8,3.9c4.8,0.1,9.6,0.1,14.4-0.1C342.7,203.9,343.5,202.5,343.1,200 M393.1,95.6
					c0.1,28.3,0.1,56.7,0,85c0,5.4-2.8,8-8.3,7.9c-5.7,0-8.3-2.6-8.3-8.2c0-14.1,0-28.2,0-42.3c0-14.1,0-28.2,0-42.3
					c0-5.5,2.5-8,8-8.1C390.2,87.6,393.1,90,393.1,95.6 M413.9,138L413.9,138c0-14.4,0.1-28.8-0.1-43.3c-0.1-11.5-6.8-20-17.5-22.8
					c-7.9-2.1-15.9-2.1-23.8,0.2c-6.2,1.8-10.9,5.4-13.9,11.2c-2.4,4.6-2.9,9.4-2.9,14.5c0,22,0,43.9,0,65.9
					c0,5.9-0.1,11.8,0.1,17.7c0.4,11.3,6.3,19.5,16,22.5c6.7,2.1,13.5,2.5,20.4,1.3c14.5-2.5,21.7-10.9,21.8-25.6
					C414,165.7,413.9,151.8,413.9,138 M469.7,72c-14.3,0-45.1-0.2-45.9,0.3c-1,0.5-2.3,1.5-2.3,2.4c-0.3,4-0.2,7.9-0.1,11.9
					c0,2,1.5,2.6,3.3,2.7c3.5,0.1,12.2,0.1,13.2,0.1c0,1.4,0,73.5,0,108.5c0,0.8,0,1.7,0,2.5c0.1,2.9,1.1,3.9,4,4
					c3.3,0.1,6.6,0.1,9.9,0.1c6.4,0,6.7-0.3,6.7-6.7c0-35,0-107,0-108.3c1.2,0,9.8,0,13.2-0.1c2.4,0,3.7-1.2,3.6-3.7
					c0-2.7,0-5.3,0-8C475.2,72.6,474.6,72,469.7,72 M723.9,200.2c0-0.7,0-124-0.1-125c-0.1-1.9-1-3.1-2.9-3.1c-5-0.1-9.9-0.1-14.9,0
					c-1.7,0-2.7,1.2-2.7,2.9c-0.1,1.1-0.1,109.4-0.1,124.5c0,3.7,0.9,4.6,4.3,4.6c4.1,0.1,8.3,0.1,12.4,0
					C722.9,204.1,723.7,203.2,723.9,200.2 M784.1,201.3c0.1-3.8,0.1-7.6,0-11.4c0-1.7-1-2.6-2.6-2.7c-1.1-0.1-14.5-0.1-20.5-0.1
					c0-1.4,0-109.7,0-110.4c-0.1-3.5-1-4.5-4.5-4.5c-3.9-0.1-7.8-0.1-11.7,0c-3.8,0.1-4.6,0.9-4.6,4.8c0,40.9,0,81.7,0,122.6
					c0,4.1,0.9,4.9,5,4.9c11.3,0,35.5-0.1,36.3-0.2C783.1,203.8,784,202.9,784.1,201.3 M840.1,200.1c0.1-2.7,0-5.5,0-8.2
					c0-4.2-0.7-5-4.9-5c-6,0-12.1-0.1-18.1,0c-2,0-2.7-0.5-2.7-2.6c0.1-12.7,0-25.4,0.1-38c0-0.7,0.1-1.4,0.2-2.4h2.8
					c5.1,0,10.1,0,15.2,0c3.5,0,4.5-1.1,4.6-4.6c0-2.5,0-5,0-7.5c0-3.8-0.9-4.7-4.7-4.7c-5.1-0.1-10.1,0-15.2,0
					c-0.9,0-1.8-0.1-2.7-0.1V89.2c1.1,0,14.4,0,20.1,0c3.4,0,4.3-1,4.4-4.3c0.1-2.5,0-5,0-7.5c0-4.7-0.8-5.5-5.5-5.5
					c-11.4,0-22.9,0-34.3,0c-4.8,0-5.4,0.6-5.5,5.5c0,0.3,0,121.9,0,122.8c0.1,3,0.9,4,3.9,4c12.8,0.1,25.7,0.1,38.5,0
					C839.1,204.1,839.9,203.1,840.1,200.1 M888.9,95.7c0.1,11,0.1,22,0,33c0,3.1-2.2,5.5-5.4,5.9c-3.4,0.5-6.9,0.4-10.4,0.6V89
					c3.8,0.3,7.6,0.2,11.2,0.9C887.1,90.4,888.9,92.7,888.9,95.7 M909.3,130.4c0.4-11.6,0.8-23.2,0.2-34.8
					c-0.8-14-9.4-22.4-23.6-23.3c-9.7-0.6-19.5-0.4-29.3-0.4c-3.1,0-3.9,1-4,4.1c0,0.8,0,1.7,0,2.5c0,39.6,0,120.7,0,121.6
					c0.1,3.1,0.9,4,4.1,4.1c3.7,0.1,7.5,0.1,11.2,0c4.4,0,5.2-0.8,5.2-5.2c0-14.6,0-45.5,0-46.6c6.2-0.6,6.2-0.6,7.3,4.9
					c2.8,13.8,5.5,27.6,8.2,41.4c1,4.9,1.7,5.6,6.7,5.6c3.3,0,6.6,0,9.9,0c4.6,0,5.5-1.3,4.5-5.8c-3.6-16.1-7.2-32.3-10.9-48.4
					c-0.3-1.2-0.4-2.1,0.9-2.9C905.6,143.1,909,137.4,909.3,130.4"/>
			</g>
		</g>
		<path class="st1" d="M594.1,258.2c0,2.5,0,2.2,1.8,2.2c1.9,0,1.8,0.3,1.8-2.2c0-1.4-0.1-1.4-1.2-1.4c-0.2,0-0.4,0-0.6,0
			s-0.4,0-0.6,0C594.2,256.8,594.1,256.9,594.1,258.2 M545.7,239.1c0.1,2.6,0,5.1,0,7.7c0,2.9,0,5.7,0,8.6c0,3,1.3,5,4.2,5.9
			c3.7,1.2,7.5,1.2,11.3-0.1c1.7-0.6,3.1-1.6,3.5-3.4c0.4-1.7,0.4-3.5,0.4-5.3c0-0.2-0.5-0.6-0.9-0.7c-0.6-0.1-1.3-0.1-1.9,0
			c-1.2,0-1.4,0.2-1.4,1.4c0,0.5,0,1,0,1.4c0,2-1,3.3-2.9,3.6c-1.4,0.2-2.8,0.3-4.2,0.2c-2.8-0.3-3.8-1.6-3.8-4.4
			c0-4.2,0-8.4,0-12.5c0-0.9,0-1.7,0-2.6c0.1-1.8,0.9-2.9,2.6-3.3c1.4-0.3,2.9-0.4,4.3-0.3c2.8,0.2,4.3,1.4,4.1,4.6
			c-0.1,1.4,0.1,1.5,1.5,1.5c3.1,0,2.7,0.3,2.7-2.7c0-3.5-1.7-5.7-5.1-6.5c-2.8-0.7-5.6-0.8-8.4-0.2
			C547.8,232.5,545.5,234.6,545.7,239.1 M510.9,233.3c0,9,0,18,0,27c0,1.3,0.1,1.5,1.5,1.5c4.4,0,8.9,0,13.3,0
			c2.6,0,2.3,0.1,2.3-2.4c0-1.2-0.1-1.3-1.3-1.3c-3.5,0-6.9,0-10.4,0h-1V248c0.1,0,0.2-0.1,0.2-0.1c3,0,6,0,9.1,0
			c2.3,0,2.3,0,2.3-2.3c0-0.9-0.3-1.2-1.3-1.2c-3.1,0-6.2,0-9.4,0c-0.3,0-0.7,0-1,0v-8.9h1.1c3,0,6,0,9.1,0c2.2,0,2.2,0.3,2.2-2.2
			c0-1.4-0.1-1.4-1.4-1.4c-4.6,0-9.2,0-13.8,0C511.1,231.8,510.9,231.9,510.9,233.3 M489.5,233.2c0,9.1,0,18.1,0,27.2
			c0,1.2,0.2,1.4,1.4,1.4c4.2,0,8.4,0,12.6,0c2.4,0,2.4,0,2.4-2.4c0-1.1-0.1-1.2-1.3-1.3c-1.4,0-2.8,0-4.1,0h-6.6v-1.3
			c0-7.9,0-15.7,0-23.6c0-1.2-0.1-1.3-1.3-1.4c-0.5,0-1.1,0-1.6,0C489.7,231.8,489.5,232,489.5,233.2 M464.4,238.7c0,2.7,0,5.3,0,8
			h0c0,2.9,0,5.8,0,8.7c0,3,1.4,4.9,4.1,5.8c3,1.1,6.2,1.1,9.3,0.5c4.2-0.8,6-2.9,6-7.2c0-3.2,0.6-2.9-3.2-2.9c0,0-0.1,0-0.1,0
			c-0.6,0-0.9,0.3-0.9,1c0,0.6,0,1.2,0,1.8c0,2-1,3.3-3,3.6c-1.4,0.2-2.8,0.3-4.2,0.2c-2.8-0.3-3.8-1.6-3.8-4.4c0-4.3,0-8.6,0-12.9
			c0-0.8,0-1.7,0.1-2.5c0.1-1.5,0.9-2.6,2.4-2.9c1.5-0.3,3-0.5,4.5-0.4c2.7,0.2,4.4,1.3,4.1,4.6c0,0.1,0,0.2,0,0.3
			c-0.1,0.8,0.3,1.2,1.1,1.2c0.6,0,1.3,0,1.9,0c0.9,0,1.2-0.4,1.2-1.2c0-0.5,0-1,0-1.5c0-3.5-1.7-5.6-5-6.5c-3-0.8-6-0.8-9-0.1
			C466.1,232.8,464.4,234.9,464.4,238.7 M439.5,232.8c2.7,5.5,5.5,11,8.2,16.6c0.3,0.6,0.4,1.2,0.4,1.8c0,2.5,0,5.1,0,7.6
			c0,3.3-0.4,2.9,2.9,2.9c1.2,0,1.3-0.1,1.3-1.3c0-3.3,0-6.6,0-9.8c0-0.5,0.1-1,0.3-1.4c2.7-5.5,5.5-10.9,8.2-16.4
			c0.1-0.2,0.2-0.5,0.3-0.9c-1,0-1.9,0-2.7-0.1c-0.9-0.1-1.5,0.3-1.9,1.1c-2.1,4.3-4.3,8.6-6.4,12.8c-2-4.3-4.1-8.6-6.2-13
			c-0.2-0.4-0.7-0.9-1.1-1c-0.9-0.1-1.9-0.1-2.9,0C439.5,231.8,439.2,232.1,439.5,232.8 M417.1,239.1c0.1,2.6,0,5.1,0,7.7
			c0,2.9,0,5.7,0,8.6c0,3,1.3,5,4.2,5.9c3.7,1.2,7.5,1.2,11.3-0.1c1.7-0.6,3.1-1.6,3.5-3.4c0.4-1.7,0.4-3.5,0.4-5.3
			c0-0.2-0.5-0.6-0.9-0.7c-0.6-0.1-1.3-0.1-1.9,0c-1.2,0-1.4,0.2-1.4,1.4c0,0.5,0,1,0,1.4c0,2-1,3.3-2.9,3.6
			c-1.4,0.2-2.8,0.3-4.2,0.2c-2.8-0.3-3.8-1.6-3.8-4.4c0-4.2,0-8.4,0-12.5c0-0.9,0-1.7,0-2.6c0.1-1.8,0.9-2.9,2.6-3.3
			c1.4-0.3,2.9-0.4,4.3-0.3c2.8,0.2,4.3,1.4,4.1,4.6c-0.1,1.4,0.1,1.5,1.5,1.5c3.1,0,2.7,0.3,2.7-2.7c0-3.5-1.7-5.7-5.1-6.5
			c-2.8-0.7-5.6-0.8-8.4-0.2C419.3,232.5,416.9,234.6,417.1,239.1 M410.9,259.9c-1.6-3.5-3.2-6.9-4.8-10.5c0.4-0.2,0.7-0.3,1-0.4
			c2.8-1.1,4.1-3,4.1-6c0-1.7,0-3.3,0-5c-0.1-1.7-0.8-3-2.1-4.1c-1.3-1.1-2.9-1.7-4.6-1.8c-3.8-0.2-7.6-0.2-11.5-0.3
			c-1.5,0-1.6,0-1.6,1.6c0,8.5,0,17,0,25.4c0,3.3-0.5,2.9,2.9,2.9c1.2,0,1.3-0.1,1.3-1.3c0-3.1,0-6.3,0-9.4c0-0.3,0-0.7,0.1-1.1
			c2,0,3.8,0,5.7,0c0.3,0,0.6,0.3,0.7,0.6c1.4,3,2.9,6,4.1,9.1c0.7,1.7,1.5,2.3,3.3,2.2C411.5,261.6,411.7,261.5,410.9,259.9z
			 M404.6,245.7c-0.6,0.2-1.3,0.4-2,0.4c-2.2,0.1-4.5,0-6.8,0v-10.9c2.8,0.2,5.5,0.2,8.2,0.5c2.1,0.3,3,1.6,3,3.8c0,1,0,2,0,3
			C406.9,244.1,406,245.2,404.6,245.7z M384.7,238.6c0-3.4-1.7-5.6-5-6.5c-2.9-0.8-5.8-0.8-8.8-0.3c-3.8,0.7-6.5,2.7-6.3,7.6
			c0.1,2.5,0,4.9,0,7.4c0,2.7,0,5.3,0,8c0,3.6,1.5,5.6,5,6.6c3.3,1,6.7,0.9,10,0c3.6-1,5.1-3.1,5.1-6.7
			C384.7,249.3,384.7,244,384.7,238.6z M376.5,258.3c-1.5,0.2-3,0.1-4.5-0.2c-2-0.3-3-1.7-3-3.7c0-5.1,0-10.2,0-15.2
			c0-2,0.9-3.1,2.8-3.7c1.8-0.5,3.6-0.6,5.4-0.1c2.4,0.6,3.2,1.7,3.2,4.1c0,2.5,0,4.9,0,7.4c0,2.3,0,4.6,0,6.8
			C380.4,256.6,379.4,258,376.5,258.3z M341.1,234.2c0,0.9,0.4,1.2,1.3,1.2c2.2,0,4.3,0,6.6,0v1.2c0,7.9,0,15.7,0,23.6
			c0,1.3,0.1,1.4,1.4,1.4c0.5,0,1,0,1.4,0c1.3,0,1.4-0.1,1.4-1.4c0-7.9,0-15.8,0-23.7v-1.2h5.8c2.1,0,2.1,0,2.1-2.1
			c0-1.4-0.1-1.5-1.5-1.5c-5.4,0-10.7,0-16.1,0C340.8,231.8,341.2,231.6,341.1,234.2 M337.4,238.6c0-3.4-1.7-5.6-5-6.5
			c-2.9-0.8-5.8-0.8-8.8-0.3c-3.7,0.7-6.5,2.7-6.2,7.6c0.1,2.5,0,4.9,0,7.4c0,2.7,0.1,5.3,0,8c-0.1,4,2.3,5.9,4.9,6.6
			c3.3,0.9,6.7,1,10.1,0c3.6-1,5-3.1,5-6.8C337.4,249.3,337.4,244,337.4,238.6z M329.2,258.3c-1.4,0.2-2.9,0.1-4.3-0.2
			c-2.1-0.3-3.1-1.7-3.1-3.8c0-5.1,0-10.2,0-15.2c0-2,0.9-3.1,2.8-3.7c1.9-0.5,3.7-0.6,5.6-0.1c2.1,0.5,3,1.7,3.1,3.8
			c0,2.5,0,5.1,0,7.6c0,2.3-0.1,4.6,0,6.8C333.3,257,331.7,258,329.2,258.3z M285.5,259.1c0,2.9-0.3,2.7,2.6,2.7
			c1.3,0,1.4-0.1,1.4-1.4c0-6,0-12.1,0-18.1c0-0.2,0-0.4,0.1-0.7c1.9,4.6,3.9,9.1,5.8,13.6c1,2.4,0.8,2,3.1,2.1
			c1.1,0.1,1.6-0.4,2-1.4c0.8-2.1,1.7-4.1,2.5-6.1c1.1-2.8,2.2-5.5,3.3-8.3c0,0,0.1,0,0.1,0v0.8c0,5.7,0,11.4,0,17.1
			c0,2.6-0.4,2.5,2.5,2.5c1.6,0,1.7-0.1,1.7-1.7c0-8.4,0-16.8,0-25.3c0-3.4,0.5-3-3.1-3c-0.6,0-0.9,0.3-1.1,0.8
			c-1.8,4.2-3.5,8.5-5.3,12.7c-1,2.3-2,4.7-3,7.1c-0.4-1-0.7-1.8-1-2.7c-2.3-5.3-4.6-10.7-6.9-16c-0.9-2.1-0.5-1.9-2.9-1.9
			c-1.7,0-1.7,0.1-1.7,1.7C285.5,242.1,285.5,250.6,285.5,259.1 M589.9,238.6c0-3.4-1.7-5.6-5-6.5c-2.9-0.8-5.8-0.8-8.8-0.3
			c-3.7,0.7-6.5,2.7-6.2,7.6c0.1,2.5,0,4.9,0,7.4c0,2.7,0.1,5.3,0,8c-0.1,4,2.3,5.9,4.9,6.6c3.3,0.9,6.7,1,10.1,0c3.6-1,5-3.1,5-6.8
			C589.9,249.3,590,244,589.9,238.6z M581.7,258.3c-1.4,0.2-2.9,0.1-4.3-0.2c-2.1-0.3-3.1-1.7-3.1-3.8c0-5.1,0-10.2,0-15.2
			c0-2,0.9-3.1,2.8-3.7c1.9-0.5,3.7-0.6,5.6-0.1c2.1,0.5,3,1.7,3.1,3.8c0,2.5,0,5.1,0,7.6c0,2.3-0.1,4.6,0,6.8
			C585.8,257,584.2,258,581.7,258.3z"/>
	</g>
</g>
</svg>
