<?xml version="1.0" encoding="utf-8"?>
<!-- Generator: Adobe Illustrator 19.1.0, SVG Export Plug-In . SVG Version: 6.00 Build 0)  -->
<svg version="1.1" id="Layer_1" xmlns="http://www.w3.org/2000/svg" xmlns:xlink="http://www.w3.org/1999/xlink" x="0px" y="0px"
	 viewBox="0 0 45 18" style="enable-background:new 0 0 45 18;" xml:space="preserve">
<style type="text/css">
	.st0{clip-path:url(#SVGID_2_);}
</style>
<g>
	<defs>
		<rect id="SVGID_1_" x="0" y="0" width="45" height="18"/>
	</defs>
	<clipPath id="SVGID_2_">
		<use xlink:href="#SVGID_1_"  style="overflow:visible;"/>
	</clipPath>
	<path class="st0" d="M4,18c2.2,0,3.2-0.9,3.2-2.6c0-4.7,0.9-8.8,2.8-12.3c0.5-1,0.7-1.6,0.7-1.9C10.7,0.4,9.9,0,8.3,0
		C6.7,0,4.9,1.5,3,4.6c-2,3.1-3,6.8-3,11.1C0,17.2,1.1,18,3.2,18H4z M15.3,18c2.2,0,3.2-0.9,3.2-2.6c0-4.7,0.9-8.8,2.8-12.3
		c0.5-1,0.7-1.6,0.7-1.9C22,0.4,21.2,0,19.6,0c-1.6,0-3.4,1.5-5.4,4.6c-2,3.1-3,6.8-3,11.1c0,1.5,1.1,2.2,3.2,2.2H15.3z"/>
	<path class="st0" d="M41,18c-2.2,0-3.2-0.9-3.2-2.6c0-4.7-0.9-8.8-2.8-12.3c-0.5-1-0.7-1.6-0.7-1.9c0-0.8,0.8-1.2,2.4-1.2
		c1.6,0,3.4,1.5,5.4,4.6c2,3.1,3,6.8,3,11.1c0,1.5-1.1,2.2-3.2,2.2H41z M29.7,18c-2.2,0-3.2-0.9-3.2-2.6c0-4.7-0.9-8.8-2.8-12.3
		c-0.5-1-0.7-1.6-0.7-1.9C23,0.4,23.8,0,25.4,0c1.6,0,3.4,1.5,5.4,4.6c2,3.1,3,6.8,3,11.1c0,1.5-1.1,2.2-3.2,2.2H29.7z"/>
</g>
</svg>
